<svg width="24" height="21" viewBox="0 0 24 21" fill="none" xmlns="http://www.w3.org/2000/svg">
<path d="M14.7806 4.63032C14.2669 3.40483 14.6192 1.94097 15.56 1.31782C16.6573 0.59105 18.2799 1.10251 19.1814 2.46361C19.8006 3.39848 19.9177 4.4942 19.573 5.32345C20.0562 5.58393 20.5096 5.99088 20.8616 6.52225C21.7631 7.88334 21.6608 9.5332 20.6406 10.2089C19.7637 10.7897 18.1477 10.2739 17.233 9.314L8.6995 14.9661C9.22865 16.1814 9.07314 17.8706 8.19622 18.4514C7.17387 19.1286 5.61517 18.5748 4.71554 17.2165C4.36358 16.6852 4.16578 16.1089 4.11224 15.5639C3.21424 15.5577 2.25292 15.0252 1.63183 14.0875C0.730307 12.7264 0.890208 11.0343 1.98967 10.3061C2.9305 9.68294 4.41768 9.93252 5.34375 10.8808L14.7806 4.63032Z" fill="white"/>
</svg>
