<svg width="130" height="24" viewBox="0 0 130 24" fill="none" xmlns="http://www.w3.org/2000/svg">
<path d="M54.406 8.3575L61.2915 7.28525L64.3149 1.00744C64.4957 0.635789 64.8699 0.394721 65.2817 0.394721C65.6935 0.384676 66.0702 0.618222 66.261 0.987358L69.4049 7.2074L76.3105 8.14406C76.4888 8.16917 76.6521 8.23696 76.7927 8.33489C76.9785 8.46798 77.1166 8.6513 77.1919 8.87479C77.325 9.26402 77.2196 9.69593 76.9308 9.98973L71.9864 14.899L73.2269 21.7543C73.3022 22.1662 73.139 22.578 72.8075 22.8241C72.471 23.0702 72.0341 23.1053 71.6624 22.9195L65.4625 19.7354L59.3278 23.0375C58.9637 23.2334 58.5167 23.2033 58.1827 22.9647C57.8462 22.7236 57.6755 22.3143 57.7433 21.9075L58.8532 15.027L53.8134 10.2107C53.5171 9.92193 53.4041 9.49504 53.5296 9.09828C53.6577 8.71157 53.9942 8.42028 54.406 8.3575Z" fill="#5FA9EE"/>
<path d="M24.5565 11.4437L29.9002 10.6125L32.2481 5.74095C32.3887 5.45217 32.68 5.26634 32.9989 5.26634C33.3178 5.25881 33.6116 5.43961 33.7598 5.72839L36.2006 10.5548L41.5618 11.2805C41.6999 11.3006 41.828 11.3508 41.936 11.4286C42.0816 11.5316 42.1871 11.6747 42.2474 11.848C42.3503 12.1493 42.2675 12.4858 42.044 12.7118L38.207 16.5237L39.1712 21.8448C39.229 22.1637 39.1034 22.4826 38.8473 22.676C38.5862 22.8668 38.2472 22.8944 37.9584 22.7488L33.1471 20.2778L28.386 22.8417C28.1022 22.9924 27.7582 22.9698 27.497 22.7865C27.2359 22.6006 27.1028 22.2817 27.1555 21.9653L28.0168 16.6267L24.1045 12.8876C23.8735 12.6641 23.7856 12.3326 23.8835 12.0238C23.9764 11.7174 24.2376 11.4939 24.5565 11.4437Z" fill="#5FA9EE"/>
<path d="M1.1854 13.6006L4.5277 13.0808L5.99671 10.0323C6.0846 9.85151 6.2654 9.736 6.46629 9.736C6.66718 9.73098 6.85049 9.84399 6.94341 10.0248L8.47017 13.0431L11.8225 13.4977C11.9079 13.5102 11.9883 13.5429 12.0561 13.5906C12.1465 13.6559 12.2143 13.7438 12.2494 13.8517C12.3147 14.0401 12.262 14.251 12.1213 14.3916L9.72071 16.7772L10.3234 20.1069C10.3585 20.3053 10.2807 20.5062 10.12 20.6267C9.95676 20.7473 9.74331 20.7623 9.56502 20.6719L6.55669 19.1251L3.5785 20.7272C3.40272 20.8226 3.18425 20.8075 3.02354 20.692C2.86032 20.5765 2.77745 20.3756 2.8101 20.1798L3.34999 16.84L0.904152 14.5021C0.761018 14.3615 0.705774 14.1556 0.766041 13.9622C0.821286 13.7714 0.984509 13.6308 1.1854 13.6006Z" fill="#5FA9EE"/>
<path d="M106.18 11.4437L100.837 10.6125L98.4889 5.74095C98.3483 5.45217 98.057 5.26634 97.7381 5.26634C97.4192 5.25881 97.1253 5.43961 96.9772 5.72839L94.5364 10.5548L89.1751 11.2805C89.037 11.3006 88.909 11.3508 88.801 11.4286C88.6553 11.5316 88.5499 11.6747 88.4896 11.848C88.3866 12.1493 88.4695 12.4858 88.693 12.7118L92.53 16.5237L91.5657 21.8448C91.508 22.1637 91.6335 22.4826 91.8897 22.676C92.1508 22.8668 92.4898 22.8944 92.7786 22.7488L97.5899 20.2778L102.351 22.8417C102.635 22.9924 102.981 22.9698 103.24 22.7865C103.501 22.6006 103.634 22.2817 103.581 21.9653L102.72 16.6267L106.632 12.8876C106.863 12.6641 106.951 12.3326 106.853 12.0238C106.761 11.7174 106.502 11.4939 106.18 11.4437Z" fill="#5FA9EE"/>
<path d="M129.554 13.6009L126.212 13.0811L124.743 10.0326C124.655 9.85175 124.474 9.73624 124.273 9.73624C124.075 9.73122 123.889 9.84423 123.796 10.025L122.269 13.0434L118.917 13.4979C118.831 13.5105 118.751 13.5431 118.683 13.5908C118.593 13.6561 118.525 13.744 118.49 13.852C118.425 14.0403 118.477 14.2513 118.618 14.3919L121.019 16.7774L120.416 20.1072C120.381 20.3056 120.459 20.5065 120.619 20.627C120.783 20.7475 120.996 20.7626 121.174 20.6722L124.185 19.1253L127.163 20.7274C127.339 20.8229 127.558 20.8078 127.718 20.6923C127.882 20.5768 127.964 20.3759 127.932 20.18L127.392 16.8402L129.838 14.5024C129.981 14.3617 130.036 14.1558 129.976 13.9625C129.916 13.7716 129.752 13.631 129.554 13.6009Z" fill="#5FA9EE"/>
</svg>
