<svg width="141" height="26" viewBox="0 0 141 26" fill="none" xmlns="http://www.w3.org/2000/svg">
<path d="M58.432 9.05337L65.9292 7.88586L69.2212 1.0503C69.4181 0.645638 69.8255 0.383152 70.2739 0.383152C70.7223 0.372215 71.1324 0.62651 71.3402 1.02844L74.7635 7.8011L82.2826 8.82097C82.4767 8.84831 82.6544 8.92212 82.8076 9.02876C83.0099 9.17367 83.1603 9.37328 83.2423 9.61662C83.3872 10.0404 83.2724 10.5107 82.9579 10.8306L77.5742 16.176L78.925 23.6404C79.007 24.0889 78.8293 24.5373 78.4683 24.8052C78.1019 25.0732 77.6262 25.1115 77.2215 24.9091L70.4707 21.4421L63.791 25.0376C63.3946 25.2509 62.9079 25.2181 62.5442 24.9583C62.1778 24.6959 61.9919 24.2502 62.0657 23.8072L63.2743 16.3155L57.7867 11.0712C57.4641 10.7568 57.341 10.292 57.4777 9.85997C57.6172 9.4389 57.9836 9.12173 58.432 9.05337Z" fill="#FCDC00"/>
<path d="M25.9303 12.4137L31.7487 11.5087L34.3052 6.20427C34.4583 5.88984 34.7755 5.6875 35.1227 5.6875C35.47 5.6793 35.7899 5.87617 35.9512 6.19061L38.6088 11.4458L44.4464 12.236C44.5968 12.2578 44.7362 12.3125 44.8538 12.3973C45.0124 12.5094 45.1272 12.6652 45.1929 12.8539C45.305 13.182 45.2147 13.5484 44.9714 13.7945L40.7935 17.945L41.8434 23.7388C41.9063 24.0861 41.7696 24.4333 41.4907 24.6439C41.2064 24.8517 40.8372 24.8817 40.5228 24.7232L35.284 22.0327L30.0999 24.8243C29.791 24.9884 29.4164 24.9638 29.132 24.7642C28.8477 24.5618 28.7028 24.2146 28.7602 23.8701L29.698 18.0571L25.4381 13.9859C25.1866 13.7425 25.0909 13.3816 25.1975 13.0453C25.2987 12.7117 25.583 12.4684 25.9303 12.4137Z" fill="#FCDC00"/>
<path d="M0.482853 14.7623L4.1221 14.1964L5.72162 10.877C5.81732 10.6801 6.01418 10.5544 6.23292 10.5544C6.45166 10.5489 6.65126 10.672 6.75242 10.8688L8.41483 14.1553L12.065 14.6502C12.158 14.6639 12.2455 14.6995 12.3193 14.7514C12.4177 14.8225 12.4916 14.9182 12.5298 15.0358C12.6009 15.2408 12.5435 15.4705 12.3904 15.6236L9.77647 18.2211L10.4327 21.8467C10.471 22.0627 10.3862 22.2814 10.2112 22.4127C10.0335 22.5439 9.80108 22.5603 9.60695 22.4619L6.33135 20.7776L3.08857 22.5221C2.89717 22.626 2.65929 22.6096 2.4843 22.4838C2.30658 22.358 2.21635 22.1393 2.25189 21.926L2.83975 18.2895L0.17662 15.7439C0.020769 15.5908 -0.0393826 15.3666 0.0262387 15.1561C0.0863916 14.9483 0.264116 14.7952 0.482853 14.7623Z" fill="#FCDC00"/>
<path d="M114.806 12.4137L108.988 11.5087L106.431 6.20427C106.278 5.88984 105.961 5.6875 105.614 5.6875C105.266 5.6793 104.947 5.87617 104.785 6.19061L102.128 11.4458L96.29 12.236C96.1396 12.2578 96.0002 12.3125 95.8826 12.3973C95.724 12.5094 95.6092 12.6652 95.5436 12.8539C95.4315 13.182 95.5217 13.5484 95.765 13.7945L99.9429 17.945L98.893 23.7388C98.8301 24.0861 98.9668 24.4333 99.2457 24.6439C99.5301 24.8517 99.8992 24.8817 100.214 24.7232L105.452 22.0327L110.636 24.8243C110.945 24.9884 111.323 24.9638 111.604 24.7642C111.889 24.5618 112.034 24.2146 111.976 23.8701L111.038 18.0571L115.298 13.9859C115.55 13.7425 115.646 13.3816 115.539 13.0453C115.438 12.7117 115.156 12.4684 114.806 12.4137Z" fill="#FCDC00"/>
<path d="M140.256 14.7623L136.617 14.1964L135.017 10.877C134.922 10.6801 134.725 10.5544 134.506 10.5544C134.29 10.5489 134.088 10.672 133.987 10.8688L132.324 14.1553L128.674 14.6502C128.581 14.6639 128.494 14.6995 128.42 14.7514C128.321 14.8225 128.248 14.9182 128.209 15.0358C128.138 15.2408 128.196 15.4705 128.349 15.6236L130.963 18.2211L130.306 21.8467C130.268 22.0627 130.353 22.2814 130.528 22.4127C130.706 22.5439 130.938 22.5603 131.132 22.4619L134.41 20.7776L137.653 22.5221C137.845 22.626 138.083 22.6096 138.258 22.4838C138.435 22.358 138.525 22.1393 138.49 21.926L137.902 18.2895L140.565 15.7439C140.721 15.5908 140.781 15.3666 140.716 15.1561C140.65 14.9483 140.472 14.7952 140.256 14.7623Z" fill="#FCDC00"/>
</svg>
