<svg width="29" height="26" viewBox="0 0 29 26" fill="none" xmlns="http://www.w3.org/2000/svg">
<path d="M1.58076 21.3972L1.5 21.6333V21.8827C1.5 22.3391 1.70018 22.6641 1.83217 22.8295C1.96377 22.9945 2.10101 23.0961 2.17503 23.1464C2.32404 23.2478 2.46292 23.3046 2.5236 23.3285C2.66365 23.3835 2.80901 23.4227 2.91474 23.4491C3.14371 23.5062 3.43831 23.5639 3.75191 23.6193C4.38981 23.732 5.22804 23.8567 6.06051 23.9708C6.89611 24.0854 7.74227 24.1915 8.40195 24.267C8.73083 24.3046 9.02004 24.3353 9.2412 24.3556C9.3506 24.3657 9.45303 24.3741 9.53945 24.3793C9.54085 24.3794 9.54289 24.3795 9.54554 24.3797C9.57726 24.3819 9.69537 24.3898 9.82891 24.3827C10.1546 24.3669 10.3885 24.2498 10.4754 24.2033C10.5938 24.14 10.6808 24.0737 10.7281 24.0354C10.8242 23.9578 10.8971 23.8811 10.9358 23.8391C11.0202 23.7475 11.1014 23.6449 11.1678 23.5579C11.3072 23.3753 11.4784 23.1328 11.6623 22.8645C12.0342 22.322 12.5097 21.5983 12.9893 20.8608C13.3132 20.3626 13.635 19.8644 13.931 19.4062C13.9332 19.4027 13.9355 19.3992 13.9377 19.3958C14.2069 19.8506 14.5021 20.3463 14.8062 20.8487C15.2634 21.6042 15.7311 22.3573 16.118 22.931C16.3085 23.2135 16.4996 23.4826 16.6719 23.6938C16.755 23.7957 16.8635 23.9212 16.9875 24.0351C17.049 24.0915 17.1448 24.1735 17.2687 24.2513C17.3696 24.3146 17.6237 24.4623 17.9811 24.4941L18.0474 24.5H18.114C18.3422 24.5 18.9086 24.4467 19.4976 24.3854C20.1383 24.3186 20.9412 24.2271 21.7298 24.1268C22.514 24.0272 23.3027 23.9166 23.9071 23.8114C24.2034 23.7598 24.4899 23.7036 24.7188 23.6438C24.825 23.6161 24.9758 23.5732 25.1243 23.5099C25.193 23.4806 25.3292 23.4188 25.4744 23.3126L25.475 23.3122C25.5591 23.2507 25.9912 22.9347 26.091 22.3132L26.11 22.1951V22.0754C26.11 21.7386 25.9951 21.4519 25.9659 21.379C25.9646 21.3757 25.9635 21.3729 25.9625 21.3705C25.9116 21.2418 25.8488 21.109 25.7873 20.9864C25.6623 20.7373 25.4928 20.4316 25.2998 20.0969C24.9113 19.423 24.3802 18.5495 23.8042 17.6113C23.5883 17.2596 23.3659 16.8986 23.1413 16.5339C22.3635 15.2709 21.5591 13.9649 20.9056 12.8574C21.9174 11.4916 23.0483 9.89111 24.0127 8.46254C24.593 7.60293 25.1202 6.79501 25.528 6.13131C25.9 5.52604 26.267 4.89318 26.4174 4.4584L26.4448 4.37904L26.4633 4.2971C26.5891 3.7372 26.3712 3.2968 26.2087 3.07415C26.0582 2.86809 25.8914 2.74949 25.8178 2.70038C25.6616 2.59619 25.5159 2.54044 25.4628 2.52047C25.3293 2.47034 25.1899 2.43424 25.0899 2.4101C24.8709 2.35724 24.5852 2.30212 24.2772 2.24808C23.6512 2.1382 22.8229 2.01375 21.9947 1.89946C21.1646 1.78491 20.3184 1.67835 19.6529 1.60489C19.3218 1.56833 19.0248 1.5388 18.7931 1.5208C18.6787 1.51192 18.5658 1.5047 18.4662 1.50164C18.4647 1.5016 18.4625 1.50151 18.4598 1.50141C18.4203 1.49986 18.2533 1.49333 18.0673 1.52121L18.0672 1.52116C17.7849 1.56302 17.5851 1.67473 17.5077 1.72059C17.4115 1.77763 17.3388 1.8346 17.2958 1.87025C17.2094 1.94176 17.1414 2.01233 17.1009 2.05582C17.015 2.14808 16.9297 2.25295 16.8561 2.34707C16.7033 2.54231 16.5152 2.80114 16.3126 3.08816C15.9037 3.66762 15.3873 4.43098 14.8796 5.19181C14.5947 5.61885 14.3103 6.04822 14.0464 6.44825C13.8059 6.05332 13.5471 5.63125 13.2869 5.21285C12.8214 4.46455 12.3381 3.70729 11.9373 3.13005C11.7401 2.84605 11.5413 2.5742 11.362 2.36182C11.276 2.25992 11.1613 2.13178 11.0292 2.0165C10.964 1.9596 10.8593 1.8745 10.7225 1.79628C10.6111 1.7326 10.3241 1.58199 9.92907 1.58199C9.70694 1.58199 9.14614 1.63142 8.55593 1.68901C7.91678 1.75137 7.11629 1.83673 6.33176 1.92946C5.55111 2.02174 4.76932 2.12328 4.17454 2.21845C3.88299 2.2651 3.60397 2.31526 3.38396 2.36779C3.28338 2.3918 3.13656 2.42977 2.99212 2.48682C2.92911 2.51171 2.78336 2.57181 2.62764 2.68187C2.62654 2.68265 2.62522 2.68357 2.62368 2.68465C2.55087 2.73565 1.99797 3.1229 1.97699 3.88486C1.9657 4.24167 2.07682 4.53333 2.10977 4.61981C2.1106 4.622 2.11139 4.62406 2.11212 4.62599C2.16891 4.77552 2.24013 4.92304 2.3073 5.05243C2.4438 5.31538 2.62878 5.62734 2.83475 5.9584C3.2501 6.626 3.81951 7.48051 4.42923 8.38772C4.56925 8.59607 4.71146 8.80731 4.85482 9.02026C5.75009 10.3501 6.69012 11.7464 7.41995 12.9176C6.3199 14.3511 5.10643 15.9933 4.08259 17.4368C3.47037 18.3 2.91869 19.1023 2.497 19.7519C2.2867 20.0759 2.10143 20.3731 1.95476 20.6271C1.82546 20.851 1.67057 21.1347 1.58076 21.3972ZM23.173 22.4743C23.1853 22.5053 23.1799 22.4985 23.1682 22.4629C23.1705 22.4682 23.172 22.4719 23.173 22.4743Z" fill="white" stroke="#008DC0" stroke-width="3"/>
</svg>
