<svg width="36" height="12" viewBox="0 0 36 12" fill="none" xmlns="http://www.w3.org/2000/svg">
<path d="M27.6791 2.73783C28.1039 1.2048 29.9887 0 31.9186 0C34.1695 0 36 1.55303 36 3.47031C36 4.78719 35.1322 5.93596 33.8576 6.52435C34.3006 7.09273 34.5627 7.7852 34.5627 8.5337C34.5627 10.451 32.8587 12 30.7661 12C28.9672 12 27.1503 10.447 26.7525 8.91396H9.24746C8.85424 10.447 7.03728 12 5.23841 12C3.14124 12 1.44181 10.447 1.44181 8.5337C1.44181 7.7852 1.70396 7.09273 2.14238 6.52435C0.867806 5.93596 0 4.79119 0 3.47031C0 1.55303 1.82599 0 4.08135 0C6.0113 0 7.89604 1.20881 8.3209 2.73783H27.6791Z" fill="white"/>
</svg>
